<svg xmlns="http://www.w3.org/2000/svg" xmlns:xlink="http://www.w3.org/1999/xlink" width="40" zoomAndPan="magnify" viewBox="0 0 30 30.000001" height="40" preserveAspectRatio="xMidYMid meet" version="1.0"><defs><clipPath id="id1"><path d="M 5.492188 2.902344 L 23.636719 2.902344 L 23.636719 25.402344 L 5.492188 25.402344 Z M 5.492188 2.902344 " clip-rule="nonzero"/></clipPath></defs><g clip-path="url(#id1)"><path fill="rgb(0%, 0%, 0%)" d="M 23.128906 25.402344 L 19.601562 25.402344 C 19.324219 25.402344 19.097656 25.175781 19.097656 24.890625 L 19.097656 15.6875 L 10.03125 15.6875 L 10.03125 24.890625 C 10.03125 25.175781 9.804688 25.402344 9.527344 25.402344 L 6 25.402344 C 5.722656 25.402344 5.496094 25.175781 5.496094 24.890625 L 5.496094 3.414062 C 5.496094 3.132812 5.722656 2.902344 6 2.902344 L 9.527344 2.902344 C 9.804688 2.902344 10.03125 3.132812 10.03125 3.414062 L 10.03125 11.597656 L 19.097656 11.597656 L 19.097656 3.414062 C 19.097656 3.132812 19.324219 2.902344 19.601562 2.902344 L 23.128906 2.902344 C 23.40625 2.902344 23.632812 3.132812 23.632812 3.414062 L 23.632812 24.890625 C 23.632812 25.175781 23.40625 25.402344 23.128906 25.402344 Z M 23.128906 25.402344 " fill-opacity="1" fill-rule="nonzero"/></g></svg>